# xmcd CD database file
#
# Track frame offsets:
#	150
#	18820
#	29802
#	40915
#
# Disc length: 815 seconds
#
# Revision: 0
# Processed by: cddbd v1.5.1PL0 Copyright (c) Steve Scherf et al.
# Submitted via: CDex 1.51
#
DISCID=2a032d04
DTITLE=Paul Gilbert - Individually Twisted (EP)
DYEAR=2000
DGENRE=Hard Rock
TTITLE0=Individually Twisted
TTITLE1=Oh Jenor
TTITLE2=I Call Your Name
TTITLE3=Superloud
EXTD=YEAR: 2000
EXTT0=
EXTT1=
EXTT2=
EXTT3=
PLAYORDER=
